HIERARCHY
ROOT Hips
{
  OFFSET 13.6774 106.653 -34.4427
  CHANNELS 6 Xposition Yposition Zposition Zrotation Xrotation Yrotation
  JOINT ToSpine
  {
    OFFSET -2.69724 7.43032 -0.144315
    CHANNELS 3 Zrotation Xrotation Yrotation
    JOINT Spine
    {
      OFFSET -0.0310711 10.7595 1.96963
      CHANNELS 3 Zrotation Xrotation Yrotation
      JOINT Spine1
      {
        OFFSET 19.9056 3.91189 0.764692
        CHANNELS 3 Zrotation Xrotation Yrotation
        JOINT Neck
        {
          OFFSET 25.9749 7.03908 -0.130764
          CHANNELS 3 Zrotation Xrotation Yrotation
          JOINT Head
          {
            OFFSET 9.52751 0.295786 -0.907742
            CHANNELS 3 Zrotation Xrotation Yrotation
            End Site
            {
              OFFSET 16.4037 0.713936 2.7358
            }
          }
        }
        JOINT LeftShoulder
        {
          OFFSET 17.7449 4.33886 11.7777
          CHANNELS 3 Zrotation Xrotation Yrotation
          JOINT LeftArm
          {
            OFFSET 0.911315 1.27913 9.80584
            CHANNELS 3 Zrotation Xrotation Yrotation
            JOINT LeftForeArm
            {
              OFFSET 28.6126 1.18197 -3.53199
              CHANNELS 3 Zrotation Xrotation Yrotation
              JOINT LeftHand
              {
                OFFSET 27.5088 0.0218783 0.327423
                CHANNELS 3 Zrotation Xrotation Yrotation
                End Site
                {
                  OFFSET 18.6038 -0.000155887 0.382096
                }
              }
            }
          }
        }
        JOINT RightShoulder
        {
          OFFSET 17.1009 2.89543 -12.2328
          CHANNELS 3 Zrotation Xrotation Yrotation
          JOINT RightArm
          {
            OFFSET 1.4228 0.178766 -10.211
            CHANNELS 3 Zrotation Xrotation Yrotation
            JOINT RightForeArm
            {
              OFFSET 28.733 1.87905 2.64907
              CHANNELS 3 Zrotation Xrotation Yrotation
              JOINT RightHand
              {
                OFFSET 27.4588 0.290562 -0.101845
                CHANNELS 3 Zrotation Xrotation Yrotation
                End Site
                {
                  OFFSET 17.8396 -0.255518 -0.000602873
                }
              }
            }
          }
        }
      }
    }
  }
  JOINT LeftUpLeg
  {
    OFFSET -5.61296 -2.22332 -10.2353
    CHANNELS 3 Zrotation Xrotation Yrotation
    JOINT LeftLeg
    {
      OFFSET 2.56703 -44.7417 -7.93097
      CHANNELS 3 Zrotation Xrotation Yrotation
      JOINT LeftFoot
      {
        OFFSET 3.16933 -46.5642 -3.96578
        CHANNELS 3 Zrotation Xrotation Yrotation
        JOINT LeftToeBase
        {
          OFFSET 0.346054 -6.02161 12.8035
          CHANNELS 3 Zrotation Xrotation Yrotation
          End Site
          {
            OFFSET 0.134235 -1.35082 5.13018
          }
        }
      }
    }
  }
  JOINT RightUpLeg
  {
    OFFSET -5.7928 -1.72406 10.6446
    CHANNELS 3 Zrotation Xrotation Yrotation
    JOINT RightLeg
    {
      OFFSET -2.57161 -44.7178 -7.85259
      CHANNELS 3 Zrotation Xrotation Yrotation
      JOINT RightFoot
      {
        OFFSET -3.10148 -46.5936 -4.03391
        CHANNELS 3 Zrotation Xrotation Yrotation
        JOINT RightToeBase
        {
          OFFSET -0.0828122 -6.13587 12.8035
          CHANNELS 3 Zrotation Xrotation Yrotation
          End Site
          {
            OFFSET -0.131328 -1.35082 5.13018
          }
        }
      }
    }
  }
}
MOTION
Frames: 19
Frame Time: 0.03333333333333333
0.0000 93.1000 0.0000 63.4034 -40.5068 -20.9801 -70.5521 0.3854 87.8185 92.8596 69.0720 -7.5077 5.2982 19.9593 -3.7197 -136.4177 26.7243 -176.0814 173.0347 63.8101 -147.6981 -3.2307 -27.1573 -33.8683 -49.0301 -0.7823 -158.6044 15.2561 21.2922 -37.4904 -1.7529 -0.1370 2.1516 -3.5719 11.5638 45.1791 -60.7444 -3.3329 123.2019 5.0957 -31.7365 19.4947 2.6684 1.1288 2.1353 -55.0317 20.0750 107.2453 -5.4850 55.4248 -14.1479 -3.5946 -23.0090 -2.9409 8.3984 -19.9815 23.5584 -16.4907 -18.5310 91.3127 2.6179 55.9529 0.4545 -5.7251 -2.2377 -0.4208 1.4454 -10.3634 -7.0608 
0.0000 93.1000 0.0000 64.5560 -40.0012 -21.3178 -70.4000 0.1267 87.8846 94.0430 68.8929 -7.6644 4.9671 19.8387 -2.8043 -137.3011 27.0616 -177.2475 173.0153 64.2949 -146.9846 -3.0258 -27.3703 -33.1277 -49.1777 -0.3163 -158.0644 15.1281 22.0973 -37.6686 -1.5736 -0.1253 2.2189 -3.5782 11.8761 45.1368 -60.2475 -3.1790 123.1836 5.0575 -30.7685 19.2697 2.8203 0.9444 2.3557 -54.0765 19.8686 106.7721 -6.3028 55.9728 -12.5526 -3.5892 -22.8486 -2.8919 8.9417 -20.6666 23.3999 -16.6439 -19.6940 90.9859 2.6771 56.1874 0.2554 -5.2261 -2.4630 -0.5328 1.3574 -10.2142 -6.4665 
0.0000 93.1000 0.0000 64.4225 -39.7130 -20.5253 -70.4509 0.1189 88.0008 94.3322 69.2311 -7.9423 4.2808 19.2206 -2.1227 -137.5854 26.8616 -177.0470 173.7924 64.3714 -147.6832 -2.7321 -27.0704 -32.1867 -49.4042 -0.1373 -158.8175 16.1856 22.2588 -38.0886 -2.0434 0.0603 1.7134 -3.6576 11.8113 46.0792 -58.1008 -1.7057 123.2577 6.0170 -27.9363 20.1757 2.8329 0.2443 2.1377 -53.9836 20.1269 106.7975 -6.4709 56.9003 -11.9466 -3.9133 -22.8548 -3.1240 8.9761 -20.1931 23.0120 -16.7503 -19.8012 91.6373 2.9792 56.5258 -0.0126 -4.3344 -2.8551 -0.1934 0.9381 -9.9171 -7.3846 
0.0000 93.1000 0.0000 64.4023 -40.4351 -22.9040 -70.5221 0.3296 88.0155 93.1912 69.2250 -7.6062 4.5656 19.0099 -1.3901 -137.7325 26.3849 -179.8077 173.3839 63.9476 -145.5339 -2.2299 -26.3311 -31.5471 -50.7021 0.0241 -158.7983 16.7313 22.2944 -38.4437 -1.7132 0.3920 1.4181 -3.6334 11.0422 46.2977 -55.6633 -0.0007 122.3461 8.1082 -25.3144 21.8131 2.9582 -0.1850 1.7732 -53.6707 21.3827 106.6293 -7.1493 58.0540 -12.7548 -4.0212 -22.4368 -3.3134 10.0092 -21.1820 25.8214 -15.8702 -19.0660 92.4223 4.0752 57.4848 0.6877 -4.3001 -3.2700 0.3689 0.9616 -8.2448 -10.1386 
0.0000 93.1000 0.0000 63.5386 -40.1783 -22.5899 -70.5553 0.0238 88.0101 92.1444 68.6058 -6.5827 4.5638 19.0166 -1.9479 -137.3972 26.1284 -179.6455 174.7616 64.0120 -146.4668 -2.3256 -26.2680 -31.2908 -51.9255 -0.4119 -158.9353 17.3819 22.1903 -39.9418 -1.4516 0.0868 1.4702 -3.8848 10.8723 46.2568 -56.1659 -0.8809 121.3369 12.2377 -23.3219 27.3222 2.8320 0.0009 1.6655 -52.9450 21.1039 106.8928 -7.6954 58.9060 -12.5239 -3.3508 -21.9625 -2.7544 10.3499 -21.4484 24.5048 -15.3764 -18.4007 92.3230 4.4492 58.2614 0.0980 -4.8398 -3.2912 0.0102 0.6509 -8.7180 -9.9091 
0.0000 93.1000 0.0000 63.4590 -39.9895 -21.4784 -70.5672 0.3109 88.0263 91.8733 68.2867 -6.5233 4.5447 18.9029 -2.0167 -137.1808 26.5606 -180.8671 175.7726 64.3290 -147.1326 -1.8122 -26.1553 -29.9537 -54.1516 0.0865 -159.8715 19.1682 22.0687 -43.8515 -1.2825 0.1056 0.8036 -3.6157 10.8078 45.2682 -60.5920 -2.9213 120.3346 17.4019 -24.7225 36.2845 2.2941 -0.0651 1.8182 -52.5262 20.9705 105.7506 -7.1908 58.4114 -12.5110 -3.9126 -22.1204 -2.5772 9.7535 -20.7234 25.7014 -15.0187 -19.1430 90.8865 4.4853 59.1249 -0.0614 -4.9150 -4.8182 0.2256 0.7086 -7.8320 -11.2098 
0.0000 93.1000 0.0000 63.6005 -38.8188 -21.0717 -70.4306 0.7750 88.0272 92.0762 67.6494 -6.7822 3.8070 18.8507 -2.0166 -137.1008 26.4707 -181.2738 175.5616 64.9623 -147.5687 -1.0105 -24.8857 -27.7593 -56.8547 1.1972 -162.0070 20.0594 20.2359 -47.7704 -0.8244 0.4555 0.3763 -3.1885 10.9564 45.6254 -64.3691 -3.3778 117.2049 21.6947 -21.6670 47.2079 1.8739 -0.1427 1.9363 -52.7873 21.8617 104.8909 -8.0761 56.0115 -13.6305 -4.1791 -20.2837 -2.5262 9.6897 -21.0958 25.2540 -14.6785 -19.0642 89.8460 4.4869 61.3774 -0.3112 -6.0010 -6.6991 0.9281 2.0780 -8.8855 -11.7172 
0.0000 93.1000 0.0000 62.7953 -38.7236 -21.7917 -70.2997 1.0808 88.1955 93.0002 67.0124 -7.1892 3.3287 18.4175 -2.2454 -135.9926 25.8115 -181.3544 176.9578 64.0082 -146.5255 -0.2753 -22.4144 -24.5347 -59.8730 2.8653 -163.0238 19.0587 15.5101 -52.4718 -0.3175 0.6211 0.3082 -3.2127 11.1413 46.9399 -66.2043 -3.0508 116.1158 21.8740 -15.5802 57.6686 1.6981 0.0412 1.8121 -53.9772 22.4221 104.8698 -6.9285 53.1255 -13.4482 -4.6849 -18.8295 -2.6215 9.7777 -21.2283 22.7967 -14.9941 -18.0201 88.8371 4.1654 61.4989 0.0711 -7.0024 -8.6126 1.2758 2.5803 -9.6291 -11.9984 
0.0000 93.1000 0.0000 62.4752 -38.6187 -20.1885 -70.2744 -1.0532 88.2897 94.0815 67.0090 -7.6345 2.2523 17.9858 -0.8068 -135.9671 26.0521 -180.4863 178.1412 64.4615 -146.1601 -1.6089 -21.1480 -22.2478 -64.6441 4.6094 -164.0641 18.1476 9.4473 -60.0358 -1.2009 -0.5633 -0.0684 -5.6124 11.7718 46.1626 -69.5397 -3.5924 115.3306 18.4646 -7.6299 67.5934 1.7234 -1.3343 -0.3665 -56.8939 22.9065 104.2846 -5.5849 48.1769 -9.6191 -5.4739 -14.7156 -0.9094 10.3681 -21.3339 20.2990 -17.8483 -17.1295 87.2020 4.5078 61.5056 -1.5857 -5.3139 -9.6831 1.0773 -0.3857 -8.4858 -8.9686 
0.0000 93.1000 0.0000 63.0463 -37.8281 -19.2677 -70.2626 0.0906 87.9467 91.7199 66.6804 -6.8966 2.0994 17.3540 0.5888 -133.8379 25.8717 176.9318 178.8051 64.7311 -146.2253 -0.0856 -19.5891 -20.8898 -69.0194 6.9664 -164.1906 15.6639 6.9324 -65.2578 0.0612 -0.2601 0.3401 -3.5809 10.8697 42.9572 -75.2003 -5.5404 115.9858 16.3643 -4.5380 76.5070 1.1132 -0.0602 0.8879 -57.4911 24.0286 100.7323 -2.6396 44.4025 -4.3092 -6.1458 -8.3937 -0.7609 7.2040 -18.8060 18.3156 -19.6601 -14.1033 84.8229 4.3328 60.0651 -3.6326 -4.3625 -11.9789 1.0694 0.6252 -8.1152 -8.5987 
0.0000 93.1000 0.0000 62.3307 -36.1108 -17.2924 -70.3295 -1.5320 87.9543 87.0107 67.5290 -4.4354 0.9402 17.3178 1.5784 -132.0575 26.4375 175.1751 177.6406 66.1093 -147.5630 -1.9915 -18.8445 -19.7621 -73.3446 9.1641 -166.0526 13.1141 4.8282 -70.3510 1.4871 -2.0638 2.2055 -3.7299 10.2209 39.4111 -82.7805 -9.3988 115.8421 18.5555 -2.3057 83.0415 -0.2850 3.3827 2.7831 -54.4351 24.6912 97.8361 -2.2216 44.2176 2.4045 -7.3815 -4.5967 0.8592 2.1340 -12.0850 16.8553 -22.9531 -11.9135 83.2100 3.1112 58.7558 -5.2836 -4.3217 -13.7594 -0.4564 1.6299 -6.2003 -8.2631 
0.0000 93.1000 0.0000 63.8704 -34.1561 -15.1161 -70.3183 -0.1350 88.1091 86.2169 67.7245 -4.1069 2.4385 17.0182 4.1314 -129.9323 27.4381 169.8811 -177.9203 68.1163 -150.1592 0.3120 -18.6324 -18.5155 -76.7060 11.1939 -168.3987 11.6511 3.0663 -73.5051 0.2670 0.6821 0.0012 -2.7959 11.2203 35.2504 -91.8738 -11.9197 114.2171 18.5410 -0.6239 88.2162 0.5395 -1.1355 -0.1062 -50.0873 24.3322 96.9365 -1.6707 49.8480 6.2244 -6.0230 -5.0488 -1.0505 -0.0358 -5.4683 14.0796 -27.4868 -10.0592 80.1399 2.0918 56.6351 -6.5798 -3.2215 -15.0305 1.0298 0.5044 -5.1623 -8.5135 
0.0000 93.1000 0.0000 64.9369 -31.7527 -13.0517 -70.5110 0.0150 88.0561 91.1084 67.8447 -9.1717 1.2902 17.2155 4.1474 -126.0730 28.0618 164.6968 -173.0845 70.1286 -153.1321 0.1403 -18.2018 -17.1176 -78.5835 13.7094 -170.4966 12.2216 3.1576 -74.3657 0.7528 0.2774 0.7920 -2.7013 10.5759 33.6509 -100.8811 -11.1254 110.7925 17.6268 1.0306 92.2889 0.3151 -0.4338 0.0549 -45.6422 23.5470 99.1981 -4.0429 55.8439 1.4395 -3.8467 -9.3860 -1.6910 1.1959 -8.3901 13.6423 -31.0891 -9.9037 75.9444 1.2777 54.0791 -6.4669 -4.5214 -15.4629 1.1183 0.7193 -5.4670 -7.7252 
0.0000 93.1000 0.0000 66.9289 -30.4804 -12.7121 -70.5903 -0.4125 87.9235 93.2054 68.7171 -12.0782 -0.1183 18.4831 4.0622 -122.9085 28.7158 162.4104 -175.8042 71.7049 -149.1864 -0.1890 -17.9829 -16.8759 -79.5483 16.6676 -170.4699 13.4897 3.1424 -76.7081 0.7162 -0.2268 1.4650 -2.8338 10.2720 32.8667 -109.2910 -9.9765 107.4472 17.9346 0.5629 92.3184 0.0997 -0.0505 -0.0479 -42.7671 20.6003 104.0718 -6.4338 60.3776 -5.1299 -4.0036 -14.2279 -1.9122 2.8667 -10.4135 15.3035 -35.0205 -9.9573 73.5616 1.9281 51.0301 -5.1622 -4.5518 -12.5279 0.5273 0.4970 -7.8601 -3.2662 
0.0000 93.1000 0.0000 67.9845 -30.2670 -11.9249 -70.6030 -0.2586 87.7426 92.9475 69.5519 -11.5762 -0.4192 19.1470 3.5088 -119.7505 28.6924 157.6404 -175.2138 73.1287 -149.0814 -0.5053 -17.8006 -17.2187 -78.6898 18.9475 -169.6200 16.9073 3.0122 -78.9036 0.4847 -0.6095 2.5288 -2.5995 9.7116 32.7625 -116.3598 -8.5486 105.3385 18.9878 -0.5679 91.4038 -0.1222 0.5141 0.1621 -41.6417 17.7799 109.4501 -8.3751 60.1183 -13.9924 -4.9512 -14.0026 -1.8851 7.1606 -18.1489 20.1308 -38.1679 -10.2915 71.6871 2.0944 48.9523 -1.4270 -3.3466 -5.1748 -0.1982 2.1026 -13.7819 0.4679 
0.0000 93.1000 0.0000 68.9108 -29.9692 -10.7005 -70.5606 0.0452 87.8219 96.0632 69.6818 -14.2152 -0.3044 19.0772 4.0225 -118.5632 28.5489 155.3276 -177.7572 73.8705 -148.1516 -0.2726 -17.7930 -18.3205 -78.3126 20.2396 -165.6441 19.1130 2.4245 -81.8381 0.0893 -0.2282 2.5316 -1.9425 9.2752 32.8260 -121.4761 -7.1213 103.6526 18.7726 -0.9386 87.6025 0.1124 -0.2042 -0.7398 -40.6865 14.3051 113.8930 -8.1691 58.2588 -18.2983 -4.5449 -13.4265 -2.2687 10.0165 -22.7820 20.7168 -39.3629 -11.7764 68.6298 3.0187 51.2964 2.2078 -1.4791 3.7289 -0.7181 2.3396 -18.1720 7.6325 
0.0000 93.1000 0.0000 70.0426 -31.1348 -8.3784 -70.6602 -0.0683 87.8386 103.1094 69.6563 -19.2445 -1.0186 19.3262 4.1638 -117.6812 28.9087 156.7593 -179.3301 73.9214 -146.4305 -0.0495 -17.7046 -19.2969 -75.8912 23.0347 -161.3100 20.7047 1.1403 -84.7373 -0.4261 -0.0179 2.0158 -1.7801 9.6441 32.5931 -125.1812 -5.9565 103.2145 18.3075 -1.9861 84.3650 -0.1983 -0.9044 -1.4556 -40.8299 11.5714 116.9866 -6.8480 54.2732 -20.6835 -7.2492 -9.9879 -1.5885 10.5671 -24.2897 17.4532 -37.9961 -13.5667 68.1854 4.5662 55.7245 6.7211 1.0559 9.3501 -1.2824 0.5537 -13.2667 10.7202 
0.0000 93.1000 0.0000 71.2116 -32.5495 -7.6747 -70.7710 -0.2388 87.8275 106.9980 69.7803 -22.3443 -1.5969 19.7339 4.9479 -117.8550 28.7952 157.6179 -181.7438 73.8502 -144.6767 -0.3359 -17.9642 -19.2977 -75.3351 24.1056 -157.1025 22.0701 0.1853 -88.1213 -0.8877 -0.2242 2.0981 -2.0523 10.0218 31.9791 -127.4694 -5.0634 102.4489 20.0267 -3.2855 80.4244 0.2439 -0.7876 -1.7489 -42.9374 9.8296 118.0472 -4.6264 49.3725 -17.0640 -8.7065 -10.0433 -0.7526 5.0049 -13.2034 9.3979 -35.9296 -13.4962 71.7474 5.4291 56.7401 10.1049 -0.0606 9.1887 -1.2831 2.6770 -14.7454 -8.2230 
0.0000 93.1000 0.0000 71.8903 -34.8241 -7.1343 -70.7458 -0.5786 87.8180 103.8046 70.4581 -18.5289 -1.0909 20.1742 4.9471 -118.9536 29.3483 157.8912 -177.6197 74.0709 -149.9373 -0.1431 -17.4688 -20.1141 -74.4188 24.0852 -152.0410 21.1215 -1.0222 -91.9481 -1.2859 -0.0853 1.7553 -2.2140 9.3882 32.1856 -127.3899 -4.5694 103.4059 20.9124 -4.8076 77.6678 0.5102 -1.2244 -2.0735 -44.1779 8.6234 115.7064 -3.8795 48.2225 -3.6926 -4.3239 -16.5033 -1.5808 0.6314 -2.0049 3.7652 -36.1184 -13.7801 73.9679 1.8154 51.8256 -0.1462 -3.4959 7.0149 -0.1911 0.9887 -17.6438 0.3789 
